<svg width="30" height="30" viewBox="0 0 30 30" fill="none" xmlns="http://www.w3.org/2000/svg">
<path fill-rule="evenodd" clip-rule="evenodd" d="M15 12.1875C14.3784 12.1875 13.7823 12.4344 13.3427 12.874C12.9032 13.3135 12.6562 13.9096 12.6562 14.5312C12.6562 15.1529 12.9032 15.749 13.3427 16.1885C13.7823 16.6281 14.3784 16.875 15 16.875C15.6216 16.875 16.2177 16.6281 16.6573 16.1885C17.0968 15.749 17.3438 15.1529 17.3438 14.5312C17.3438 13.9096 17.0968 13.3135 16.6573 12.874C16.2177 12.4344 15.6216 12.1875 15 12.1875Z" fill="url(#paint0_linear)"/>
<path d="M14.9733 27.188C14.7394 27.188 14.5041 27.1819 14.2673 27.1697C13.492 27.12 12.8695 26.5542 12.7463 25.7934C12.6717 25.3322 12.5817 24.7758 12.5072 24.3398C12.4641 24.0727 12.2798 23.8598 12.0258 23.7802C11.5148 23.6156 11.0241 23.4108 10.5642 23.1708C10.3266 23.0466 10.0444 23.0667 9.82735 23.2238C9.46688 23.4839 9.00704 23.8153 8.62454 24.0877C8.00391 24.5353 7.16532 24.495 6.58782 23.9878C6.22969 23.6691 5.87907 23.3208 5.54438 22.95C5.03157 22.3669 4.99125 21.5264 5.44219 20.9016C5.71547 20.5228 6.04594 20.0658 6.30094 19.7048C6.45938 19.4855 6.47954 19.2047 6.35625 18.9684C6.1111 18.4898 5.9086 17.9981 5.75391 17.5036C5.67375 17.2481 5.45954 17.063 5.19516 17.0203L5.09625 17.0044C4.67438 16.9359 4.16297 16.853 3.73407 16.7803C2.97844 16.6584 2.41407 16.0369 2.36485 15.27C2.33672 14.7909 2.33579 14.2969 2.3611 13.7981C2.41079 13.0228 2.97657 12.4003 3.73735 12.277C4.1986 12.2025 4.755 12.1125 5.19094 12.038C5.45813 11.9948 5.67094 11.8106 5.75063 11.5566C5.91516 11.0456 6.12 10.5548 6.36 10.095C6.48422 9.85781 6.46407 9.57516 6.30704 9.35813C6.04688 8.99766 5.71547 8.53781 5.44313 8.15531C4.995 7.53469 5.03532 6.69609 5.54297 6.11859C5.86172 5.76047 6.21 5.40984 6.58079 5.07516C7.16391 4.56234 8.00391 4.52156 8.62922 4.97297C9.00797 5.24625 9.465 5.57672 9.82594 5.83172C10.0458 5.99016 10.3261 6.01125 10.5623 5.88703C11.0409 5.64188 11.5327 5.43938 12.0272 5.28469C12.2827 5.20453 12.4678 4.99031 12.5105 4.72594L12.5264 4.62703C12.5948 4.20516 12.6778 3.69375 12.7505 3.26484C12.8723 2.50922 13.4939 1.94484 14.2608 1.89563C14.7398 1.86797 15.2344 1.86656 15.7327 1.89188C16.508 1.94156 17.1305 2.50734 17.2538 3.26813C17.3283 3.72891 17.4183 4.28531 17.4928 4.72125C17.5359 4.98844 17.7202 5.20125 17.9742 5.28094C18.4852 5.44547 18.9759 5.65031 19.4358 5.89031C19.673 6.01453 19.9561 5.99438 20.1727 5.83734C20.5331 5.57719 20.993 5.24578 21.3755 4.97344C21.9956 4.52484 22.8342 4.56516 23.4122 5.07328C23.7703 5.39203 24.1209 5.74031 24.4556 6.11109C24.9684 6.69422 25.0088 7.53469 24.5578 8.15953C24.2845 8.53828 23.9541 8.99531 23.6991 9.35625C23.5406 9.57563 23.5205 9.85641 23.6438 10.0927C23.8889 10.5713 24.0914 11.063 24.2461 11.5575C24.3263 11.813 24.5405 11.9981 24.8048 12.0408L24.9038 12.0567C25.3256 12.1252 25.837 12.2081 26.2659 12.2808C27.0216 12.4027 27.5859 13.0242 27.6352 13.7911C27.6633 14.2702 27.6642 14.7642 27.6389 15.263C27.5892 16.0383 27.0234 16.6608 26.2627 16.7841C25.8014 16.8586 25.245 16.9486 24.8091 17.0231C24.5419 17.0663 24.3291 17.2505 24.2494 17.5045C24.0848 18.0155 23.88 18.5063 23.64 18.9661C23.5158 19.2033 23.5359 19.4859 23.693 19.703C23.9531 20.0634 24.2845 20.5233 24.5569 20.9058C25.005 21.5264 24.9647 22.365 24.457 22.9425C24.1383 23.3006 23.79 23.6512 23.4192 23.9859C22.8356 24.4983 21.9961 24.5391 21.3708 24.0881C20.992 23.8148 20.535 23.4844 20.1741 23.2294C19.9547 23.0714 19.6744 23.0503 19.4377 23.1741C18.9591 23.4192 18.4673 23.6217 17.9728 23.7764C17.7173 23.8566 17.5322 24.0708 17.4895 24.3352L17.4736 24.4341C17.4052 24.8559 17.3222 25.3673 17.2495 25.7963C17.1277 26.5519 16.5061 27.1163 15.7392 27.1655C15.4875 27.1805 15.232 27.188 14.9733 27.188ZM10.2375 22.1522C10.4972 22.1522 10.7578 22.2145 10.9992 22.3402C11.4117 22.5558 11.8528 22.74 12.3103 22.8872C12.9019 23.0728 13.3331 23.5706 13.433 24.1861C13.5075 24.6202 13.598 25.1803 13.6725 25.6439C13.725 25.9697 13.9922 26.2125 14.3213 26.2336C14.7802 26.257 15.2395 26.2556 15.682 26.2298C16.0069 26.2092 16.2727 25.9678 16.3252 25.6434C16.3978 25.2136 16.4803 24.7041 16.5483 24.2845L16.5642 24.1856C16.6641 23.5692 17.0963 23.0695 17.693 22.8825C18.1369 22.7438 18.5789 22.5619 19.0069 22.3425C19.5563 22.0556 20.2139 22.103 20.7197 22.4677C21.0792 22.7217 21.5391 23.0536 21.9202 23.3288C22.1883 23.5214 22.5483 23.5045 22.7958 23.2866C23.1366 22.9786 23.4609 22.6528 23.7553 22.3219C23.9705 22.0772 23.9878 21.7186 23.7952 21.4528C23.5223 21.0694 23.1923 20.6114 22.9331 20.2528C22.5675 19.7461 22.5202 19.087 22.8098 18.533C23.0255 18.1205 23.2097 17.6794 23.3569 17.2219C23.5425 16.6303 24.0403 16.1991 24.6558 16.0992C25.0898 16.0247 25.65 15.9342 26.1136 15.8597C26.4394 15.8072 26.6822 15.54 26.7033 15.2109C26.7263 14.7525 26.7253 14.2927 26.6995 13.8502C26.6789 13.5253 26.4375 13.2595 26.1131 13.207C25.6833 13.1344 25.1738 13.0519 24.7542 12.9839L24.6553 12.968C24.0389 12.8681 23.5392 12.4359 23.3522 11.8392C23.2134 11.3953 23.0316 10.9533 22.8122 10.5253C22.5248 9.97594 22.5722 9.31828 22.9373 8.8125C23.1914 8.45297 23.5233 7.99313 23.7984 7.61203C23.9916 7.34438 23.9742 6.98391 23.7563 6.73641C23.4483 6.39563 23.1225 6.07125 22.7916 5.77688C22.5473 5.56219 22.1888 5.54438 21.9225 5.73703C21.5391 6.00984 21.0811 6.33984 20.7225 6.59906C20.2153 6.96422 19.5563 7.01156 19.0027 6.72234C18.5902 6.50672 18.1491 6.3225 17.6916 6.17531C17.1 5.98969 16.6688 5.49188 16.5689 4.87641C16.4944 4.44234 16.4039 3.88219 16.3294 3.41859C16.2769 3.09281 16.0097 2.85 15.6806 2.82891C15.2217 2.80594 14.7619 2.80688 14.3198 2.83266C13.995 2.85328 13.7292 3.09469 13.6767 3.41906C13.6041 3.84891 13.5216 4.35844 13.4536 4.77797L13.4377 4.87688C13.3378 5.49328 12.9056 5.99297 12.3089 6.18C11.865 6.31875 11.423 6.50063 10.995 6.72C10.4456 7.00734 9.7875 6.96 9.28219 6.59484C8.92266 6.34078 8.46282 6.00891 8.08172 5.73375C7.8136 5.54063 7.45407 5.55797 7.2061 5.77594C6.86532 6.08391 6.54094 6.40969 6.24657 6.74063C6.03141 6.98531 6.01407 7.34391 6.20672 7.60969C6.47954 7.99313 6.80954 8.45109 7.06875 8.80969C7.43438 9.31641 7.48172 9.97547 7.19204 10.5295C6.97641 10.942 6.79219 11.3831 6.645 11.8406C6.45938 12.4322 5.96157 12.8634 5.3461 12.9633C4.91204 13.0378 4.35188 13.1283 3.88829 13.2028C3.5625 13.2553 3.31969 13.5225 3.2986 13.8516C3.27563 14.31 3.27657 14.7698 3.30235 15.2123C3.32297 15.5372 3.56438 15.803 3.88875 15.8555C4.3186 15.9281 4.82813 16.0106 5.24766 16.0786L5.34657 16.0945C5.96297 16.1944 6.46266 16.6266 6.64969 17.2233C6.78844 17.6672 6.97032 18.1092 7.18969 18.5372C7.47704 19.0866 7.42969 19.7442 7.06454 20.25C6.81047 20.6095 6.4786 21.0694 6.20344 21.4505C6.01032 21.7181 6.02766 22.0786 6.24563 22.3261C6.5536 22.6669 6.87938 22.9913 7.21032 23.2856C7.455 23.5003 7.8136 23.5186 8.07938 23.3255C8.46282 23.0527 8.92078 22.7227 9.27938 22.4634C9.56532 22.2567 9.90047 22.1522 10.2375 22.1522Z" fill="url(#paint1_linear)"/>
<path d="M15 22.5C10.6059 22.5 7.03125 18.9253 7.03125 14.5312C7.03125 10.1372 10.6059 6.5625 15 6.5625C19.3941 6.5625 22.9688 10.1372 22.9688 14.5312C22.9688 18.9253 19.3941 22.5 15 22.5ZM15 7.5C11.123 7.5 7.96875 10.6542 7.96875 14.5312C7.96875 18.4083 11.123 21.5625 15 21.5625C18.877 21.5625 22.0312 18.4083 22.0312 14.5312C22.0312 10.6542 18.877 7.5 15 7.5Z" fill="url(#paint2_linear)"/>
<path d="M15 20.1562C11.8983 20.1562 9.375 17.633 9.375 14.5312C9.375 11.4295 11.8983 8.90625 15 8.90625C18.1017 8.90625 20.625 11.4295 20.625 14.5312C20.625 17.633 18.1017 20.1562 15 20.1562ZM15 9.84375C12.4153 9.84375 10.3125 11.9466 10.3125 14.5312C10.3125 17.1159 12.4153 19.2188 15 19.2188C17.5847 19.2188 19.6875 17.1159 19.6875 14.5312C19.6875 11.9466 17.5847 9.84375 15 9.84375Z" fill="url(#paint3_linear)"/>
<defs>
<linearGradient id="paint0_linear" x1="15.158" y1="7.73437" x2="14.8322" y2="21.7486" gradientUnits="userSpaceOnUse">
<stop stop-color="#6DC7FF"/>
<stop offset="1" stop-color="#E6ABFF"/>
</linearGradient>
<linearGradient id="paint1_linear" x1="15" y1="1.75781" x2="15" y2="27.8906" gradientUnits="userSpaceOnUse">
<stop stop-color="#1A6DFF"/>
<stop offset="1" stop-color="#C822FF"/>
</linearGradient>
<linearGradient id="paint2_linear" x1="15" y1="6.52359" x2="15" y2="22.6209" gradientUnits="userSpaceOnUse">
<stop stop-color="#6DC7FF"/>
<stop offset="1" stop-color="#E6ABFF"/>
</linearGradient>
<linearGradient id="paint3_linear" x1="15" y1="8.98453" x2="15" y2="20.4469" gradientUnits="userSpaceOnUse">
<stop stop-color="#1A6DFF"/>
<stop offset="1" stop-color="#C822FF"/>
</linearGradient>
</defs>
</svg>
