<svg width="30" height="30" viewBox="0 0 30 30" fill="none" xmlns="http://www.w3.org/2000/svg">
<path d="M15 29.2875C22.8908 29.2875 29.2875 22.8908 29.2875 15C29.2875 7.10923 22.8908 0.712494 15 0.712494C7.10926 0.712494 0.712524 7.10923 0.712524 15C0.712524 22.8908 7.10926 29.2875 15 29.2875Z" fill="white"/>
<path d="M12.1875 23.4375C13.74 23.4375 15 22.1775 15 20.625V17.8125H12.1875C10.635 17.8125 9.375 19.0725 9.375 20.625C9.375 22.1775 10.635 23.4375 12.1875 23.4375Z" fill="#0ACF83"/>
<path d="M9.375 15C9.375 13.4475 10.635 12.1875 12.1875 12.1875H15V17.8125H12.1875C10.635 17.8125 9.375 16.5525 9.375 15Z" fill="#A259FF"/>
<path d="M9.375 9.375C9.375 7.8225 10.635 6.5625 12.1875 6.5625H15V12.1875H12.1875C10.635 12.1875 9.375 10.9275 9.375 9.375Z" fill="#F24E1E"/>
<path d="M15 6.5625H17.8125C19.365 6.5625 20.625 7.8225 20.625 9.375C20.625 10.9275 19.365 12.1875 17.8125 12.1875H15V6.5625Z" fill="#FF7262"/>
<path d="M20.625 15C20.625 16.5525 19.365 17.8125 17.8125 17.8125C16.26 17.8125 15 16.5525 15 15C15 13.4475 16.26 12.1875 17.8125 12.1875C19.365 12.1875 20.625 13.4475 20.625 15Z" fill="#1ABCFE"/>
</svg>
