<svg width="30" height="30" viewBox="0 0 30 30" fill="none" xmlns="http://www.w3.org/2000/svg">
<path d="M7.20001 1.2C5.55001 1.2 4.20001 2.55 4.20001 4.2V25.8C4.20001 27.45 5.55001 28.8 7.20001 28.8H24C25.65 28.8 27 27.45 27 25.8V4.2C27 2.55 25.65 1.2 24 1.2H7.20001ZM7.20001 2.4H24C25.0008 2.4 25.8 3.19922 25.8 4.2V25.8C25.8 26.8008 25.0008 27.6 24 27.6H7.20001C6.19923 27.6 5.40001 26.8008 5.40001 25.8V4.2C5.40001 3.19922 6.19923 2.4 7.20001 2.4ZM12.8438 5.4L9.88126 5.41875C9.88126 5.41875 9.88361 15.157 9.90001 15.1125C18.982 11.5781 18.3 14.0813 18.3 14.0813V24.5625H21.15V14.1187C21.15 8.36484 12.8438 11.6438 12.8438 11.6438V5.4ZM18.9938 5.41875C18.9938 5.41875 17.9695 7.78359 16.8375 9.16875H19.9875C21.6961 6.95625 22.2563 5.41875 22.2563 5.41875H18.9938ZM9.93751 18.5812V24.5437L12.9188 21.5625L9.93751 18.5812Z" fill="#1A1A1A"/>
</svg>
