<svg width="30" height="30" viewBox="0 0 30 30" fill="none" xmlns="http://www.w3.org/2000/svg">
<path d="M5.26312 8.75H5.29562C7.03937 8.75 8.125 7.5 8.125 5.9375C8.0925 4.34062 7.03937 3.125 5.32875 3.125C3.61812 3.125 2.5 4.34062 2.5 5.9375C2.5 7.5 3.585 8.75 5.26312 8.75ZM2.5 10.625H8.125V26.875H2.5V10.625ZM27.5 16.5625C27.5 13.2831 24.8419 10.625 21.5625 10.625C19.6544 10.625 17.9613 11.5288 16.875 12.9275V10.625H11.25V26.875H16.875V17.5C16.875 16.1194 17.9944 15 19.375 15C20.7556 15 21.875 16.1194 21.875 17.5V26.875H27.5C27.5 26.875 27.5 17.4719 27.5 16.5625Z" fill="#0288D1"/>
</svg>
