<svg width="30" height="30" viewBox="0 0 30 30" fill="none" xmlns="http://www.w3.org/2000/svg">
<path d="M3.4375 25.3125H26.5625C27.7706 25.3125 28.75 24.3331 28.75 23.125V6.875C28.75 5.66688 27.7706 4.6875 26.5625 4.6875H3.4375C2.22938 4.6875 1.25 5.66688 1.25 6.875V23.125C1.25 24.3331 2.22938 25.3125 3.4375 25.3125Z" fill="#E0E0E0"/>
<path d="M16.25 25.3125H26.5625C27.7706 25.3125 28.75 24.3331 28.75 23.125V6.875C28.75 5.66688 27.7706 4.6875 26.5625 4.6875H3.4375C2.22938 4.6875 1.25 5.66688 1.25 6.875L16.25 25.3125Z" fill="#D9D9D9"/>
<path d="M4.21562 25.3125H26.5625C27.7706 25.3125 28.75 24.3331 28.75 23.125V7.1875L4.21562 25.3125Z" fill="#EEEEEE"/>
<path d="M16.0906 25.3125H26.5625C27.7706 25.3125 28.75 24.3331 28.75 23.125V7.1875L11.7319 19.76L16.0906 25.3125Z" fill="#E0E0E0"/>
<path d="M26.5625 5.9375H3.4375C2.22938 5.9375 1.25 5.66687 1.25 6.875V23.125C1.25 24.3331 2.22938 25.3125 3.4375 25.3125H4.375V7.5H25.625V25.3125H26.5625C27.7706 25.3125 28.75 24.3331 28.75 23.125V6.875C28.75 5.66687 27.7706 5.9375 26.5625 5.9375Z" fill="#EE3F08"/>
<path d="M26.5625 4.6875H15H3.4375C2.22938 4.6875 1.25 5.6475 1.25 6.875C1.25 7.62875 2.19875 8.28625 2.19875 8.28625L15 17.3475L27.8012 8.28687C27.8012 8.28687 28.75 7.62875 28.75 6.87563C28.75 5.6475 27.7706 4.6875 26.5625 4.6875Z" fill="#F5F5F5"/>
<path d="M27.0287 4.73875L15 13.125L2.97125 4.73875C1.9875 4.94937 1.25 5.81062 1.25 6.875C1.25 7.62875 2.19875 8.28625 2.19875 8.28625L15 17.3475L27.8012 8.28687C27.8012 8.28687 28.75 7.62875 28.75 6.87562C28.75 5.81062 28.0125 4.94937 27.0287 4.73875Z" fill="#EE3F08"/>
</svg>
