<svg width="30" height="30" viewBox="0 0 30 30" fill="none" xmlns="http://www.w3.org/2000/svg">
<path d="M21.875 25C21.875 25.69 21.315 26.25 20.625 26.25H9.375C8.685 26.25 8.125 25.69 8.125 25V4.375C8.125 3.685 8.685 3.125 9.375 3.125H20.625C21.315 3.125 21.875 3.685 21.875 4.375V25Z" fill="#1E88E5"/>
<path d="M10 5.00062H20V17.5H10V5.00062Z" fill="#EFE3E0"/>
<path d="M15 18.125C14.8342 18.125 14.6753 18.1908 14.5581 18.3081C14.4408 18.4253 14.375 18.5842 14.375 18.75C14.375 18.9158 14.4408 19.0747 14.5581 19.1919C14.6753 19.3092 14.8342 19.375 15 19.375C15.1658 19.375 15.3247 19.3092 15.4419 19.1919C15.5592 19.0747 15.625 18.9158 15.625 18.75C15.625 18.5842 15.5592 18.4253 15.4419 18.3081C15.3247 18.1908 15.1658 18.125 15 18.125ZM20.625 23.125C20.625 23.815 20.065 24.375 19.375 24.375H10.625C9.935 24.375 9.375 23.815 9.375 23.125V21.25C9.375 20.56 9.935 20 10.625 20H19.375C20.065 20 20.625 20.56 20.625 21.25V23.125Z" fill="#ECEFF1"/>
<path d="M9.375 21.875H20.625V22.5H9.375V21.875Z" fill="#9FA8DA"/>
<path d="M12.5 20H13.125V24.375H12.5V20ZM16.875 20H17.5V24.375H16.875V20Z" fill="#9FA8DA"/>
</svg>
