<svg width="30" height="30" viewBox="0 0 30 30" fill="none" xmlns="http://www.w3.org/2000/svg">
<path d="M10 2.5C9.01509 2.5 8.03982 2.69399 7.12987 3.0709C6.21993 3.44781 5.39314 4.00026 4.6967 4.6967C4.00026 5.39314 3.44781 6.21993 3.0709 7.12987C2.69399 8.03982 2.5 9.01509 2.5 10C2.5 10.9849 2.69399 11.9602 3.0709 12.8701C3.44781 13.7801 4.00026 14.6069 4.6967 15.3033C5.39314 15.9997 6.21993 16.5522 7.12987 16.9291C8.03982 17.306 9.01509 17.5 10 17.5C10.9849 17.5 11.9602 17.306 12.8701 16.9291C13.7801 16.5522 14.6069 15.9997 15.3033 15.3033C15.9997 14.6069 16.5522 13.7801 16.9291 12.8701C17.306 11.9602 17.5 10.9849 17.5 10C17.5 9.01509 17.306 8.03982 16.9291 7.12987C16.5522 6.21993 15.9997 5.39314 15.3033 4.6967C14.6069 4.00026 13.7801 3.44781 12.8701 3.0709C11.9602 2.69399 10.9849 2.5 10 2.5Z" fill="#174BA8"/>
<path d="M20 12.5C18.0109 12.5 16.1032 13.2902 14.6967 14.6967C13.2902 16.1032 12.5 18.0109 12.5 20C12.5 21.9891 13.2902 23.8968 14.6967 25.3033C16.1032 26.7098 18.0109 27.5 20 27.5C21.9891 27.5 23.8968 26.7098 25.3033 25.3033C26.7098 23.8968 27.5 21.9891 27.5 20C27.5 18.0109 26.7098 16.1032 25.3033 14.6967C23.8968 13.2902 21.9891 12.5 20 12.5Z" fill="#146CE8"/>
<path d="M15 3.75C13.5226 3.75 12.0597 4.04099 10.6948 4.60636C9.3299 5.17172 8.08971 6.00039 7.04505 7.04505C6.00039 8.08971 5.17172 9.3299 4.60636 10.6948C4.04099 12.0597 3.75 13.5226 3.75 15C3.75 16.4774 4.04099 17.9403 4.60636 19.3052C5.17172 20.6701 6.00039 21.9103 7.04505 22.955C8.08971 23.9996 9.3299 24.8283 10.6948 25.3936C12.0597 25.959 13.5226 26.25 15 26.25C16.4774 26.25 17.9403 25.959 19.3052 25.3936C20.6701 24.8283 21.9103 23.9996 22.955 22.955C23.9996 21.9103 24.8283 20.6701 25.3936 19.3052C25.959 17.9403 26.25 16.4774 26.25 15C26.25 13.5226 25.959 12.0597 25.3936 10.6948C24.8283 9.3299 23.9996 8.08971 22.955 7.04505C21.9103 6.00039 20.6701 5.17172 19.3052 4.60636C17.9403 4.04099 16.4774 3.75 15 3.75Z" fill="#30A6FF"/>
<path d="M10.6063 19.5725C10.6063 18.9244 11.2869 18.5575 11.7513 18.5575C12.2156 18.5575 13.5113 19.4644 14.7531 19.4644C15.4119 19.4644 16.8913 19.4 16.8913 18.0331C16.8913 15.7925 10.5694 15.9656 10.5694 12.2369C10.5694 11.5881 10.7475 8.61499 15.4344 8.61499C16.6944 8.61499 19.0031 8.97562 19.0031 10.1731C19.0031 11.0519 18.4044 11.2787 18.0031 11.2787C17.2256 11.2787 16.9125 10.5769 15.325 10.5769C13.1325 10.5769 13.1869 11.8906 13.1869 12.0819C13.1869 13.9675 19.4825 13.9675 19.4825 17.8662C19.4825 21.7044 14.8006 21.5 14.12 21.5C13.4213 21.5 10.6063 21.16 10.6063 19.5725Z" fill="white"/>
</svg>
